<svg width="138" height="70" viewBox="0 0 138 70" fill="none" xmlns="http://www.w3.org/2000/svg">
<rect y="-0.000244141" width="138" height="70" rx="10" fill="white"/>
<path d="M17.7102 53.4543V38.9088H18.642V53.4543H17.7102ZM20.625 43.4202C20.5644 42.8823 20.3144 42.4657 19.875 42.1702C19.4356 41.871 18.8826 41.7213 18.2159 41.7213C17.7386 41.7213 17.3258 41.7971 16.9773 41.9486C16.6288 42.0963 16.358 42.3009 16.1648 42.5623C15.9754 42.8198 15.8807 43.1134 15.8807 43.4429C15.8807 43.7195 15.9451 43.9581 16.0739 44.1588C16.2064 44.3596 16.3788 44.5282 16.5909 44.6645C16.8068 44.7971 17.0379 44.9088 17.2841 44.9998C17.5303 45.0869 17.767 45.1588 17.9943 45.2157L19.1307 45.5111C19.5019 45.602 19.8826 45.7251 20.2727 45.8804C20.6629 46.0357 21.0246 46.2403 21.358 46.4941C21.6913 46.7479 21.9602 47.0623 22.1648 47.4373C22.3731 47.8123 22.4773 48.2611 22.4773 48.7838C22.4773 49.4429 22.3068 50.0282 21.9659 50.5395C21.6288 51.0509 21.1383 51.4543 20.4943 51.7498C19.8542 52.0452 19.0795 52.1929 18.1705 52.1929C17.2992 52.1929 16.5455 52.0547 15.9091 51.7782C15.2727 51.5016 14.7746 51.1096 14.4148 50.602C14.0549 50.0907 13.8561 49.4846 13.8182 48.7838H15.5795C15.6136 49.2043 15.75 49.5547 15.9886 49.835C16.2311 50.1115 16.5398 50.3179 16.9148 50.4543C17.2936 50.5869 17.7083 50.6532 18.1591 50.6532C18.6553 50.6532 19.0966 50.5755 19.483 50.4202C19.8731 50.2611 20.1799 50.0414 20.4034 49.7611C20.6269 49.477 20.7386 49.1456 20.7386 48.7668C20.7386 48.4221 20.6402 48.1399 20.4432 47.9202C20.25 47.7005 19.9867 47.5187 19.6534 47.3748C19.3239 47.2308 18.9508 47.1039 18.5341 46.9941L17.1591 46.6191C16.2273 46.3653 15.4886 45.9922 14.9432 45.4998C14.4015 45.0073 14.1307 44.3558 14.1307 43.5452C14.1307 42.8748 14.3125 42.2895 14.6761 41.7895C15.0398 41.2895 15.5322 40.9013 16.1534 40.6248C16.7746 40.3445 17.4754 40.2043 18.2557 40.2043C19.0436 40.2043 19.7386 40.3426 20.3409 40.6191C20.947 40.8956 21.4242 41.2763 21.7727 41.7611C22.1212 42.2422 22.303 42.7952 22.3182 43.4202H20.625ZM24.4162 51.9998V50.727L28.3537 46.6475C28.7741 46.2043 29.1207 45.816 29.3935 45.4827C29.67 45.1456 29.8764 44.8255 30.0128 44.5225C30.1491 44.2195 30.2173 43.8975 30.2173 43.5566C30.2173 43.1702 30.1264 42.8369 29.9446 42.5566C29.7628 42.2725 29.5147 42.0547 29.2003 41.9032C28.8859 41.7479 28.5317 41.6702 28.1378 41.6702C27.7211 41.6702 27.3575 41.7554 27.0469 41.9259C26.7363 42.0963 26.4976 42.3369 26.331 42.6475C26.1643 42.9581 26.081 43.3217 26.081 43.7384H24.4048C24.4048 43.0301 24.5677 42.4107 24.8935 41.8804C25.2192 41.3501 25.6662 40.9391 26.2344 40.6475C26.8026 40.352 27.4484 40.2043 28.1719 40.2043C28.9029 40.2043 29.5469 40.3501 30.1037 40.6418C30.6643 40.9297 31.1018 41.3236 31.4162 41.8236C31.7306 42.3198 31.8878 42.8804 31.8878 43.5054C31.8878 43.9373 31.8063 44.3596 31.6435 44.7725C31.4844 45.1854 31.206 45.6456 30.8082 46.1532C30.4105 46.657 29.8575 47.2687 29.1491 47.9884L26.8366 50.4088V50.4941H32.0753V51.9998H24.4162ZM33.7344 49.727V48.3066L38.7628 40.3634H39.8821V42.4543H39.1719L35.5753 48.1475V48.2384H42.4673V49.727H33.7344ZM39.2514 51.9998V49.2952L39.2628 48.6475V40.3634H40.9276V51.9998H39.2514ZM48.2884 52.1588C47.5762 52.1588 46.9361 52.0225 46.3679 51.7498C45.8035 51.4732 45.3527 51.0945 45.0156 50.6134C44.6785 50.1323 44.4986 49.5831 44.4759 48.9657H46.1804C46.2221 49.4657 46.4437 49.8766 46.8452 50.1986C47.2467 50.5206 47.7277 50.6816 48.2884 50.6816C48.7353 50.6816 49.1312 50.5793 49.4759 50.3748C49.8243 50.1664 50.0971 49.8804 50.294 49.5168C50.4948 49.1532 50.5952 48.7384 50.5952 48.2725C50.5952 47.799 50.4929 47.3766 50.2884 47.0054C50.0838 46.6342 49.8016 46.3426 49.4418 46.1304C49.0857 45.9183 48.6766 45.8104 48.2145 45.8066C47.8622 45.8066 47.508 45.8672 47.152 45.9884C46.7959 46.1096 46.508 46.2687 46.2884 46.4657L44.6804 46.227L45.3338 40.3634H51.7315V41.8691H46.794L46.4247 45.1248H46.4929C46.7202 44.9051 47.0213 44.7213 47.3963 44.5736C47.7751 44.4259 48.1804 44.352 48.6122 44.352C49.3205 44.352 49.9512 44.5206 50.5043 44.8577C51.0611 45.1948 51.4986 45.6551 51.8168 46.2384C52.1387 46.8179 52.2978 47.4846 52.294 48.2384C52.2978 48.9922 52.1274 49.6645 51.7827 50.2554C51.4418 50.8463 50.9683 51.3123 50.3622 51.6532C49.7599 51.9903 49.0687 52.1588 48.2884 52.1588ZM55.0895 52.1077C54.7789 52.1077 54.5118 51.9979 54.2884 51.7782C54.0649 51.5547 53.9531 51.2857 53.9531 50.9713C53.9531 50.6607 54.0649 50.3956 54.2884 50.1759C54.5118 49.9524 54.7789 49.8407 55.0895 49.8407C55.4001 49.8407 55.6671 49.9524 55.8906 50.1759C56.1141 50.3956 56.2259 50.6607 56.2259 50.9713C56.2259 51.1797 56.1728 51.371 56.0668 51.5452C55.9645 51.7157 55.8281 51.852 55.6577 51.9543C55.4872 52.0566 55.2978 52.1077 55.0895 52.1077ZM62.108 52.1929C61.2102 52.1891 60.4432 51.9524 59.8068 51.4827C59.1705 51.013 58.6837 50.3293 58.3466 49.4316C58.0095 48.5338 57.8409 47.4524 57.8409 46.1873C57.8409 44.9259 58.0095 43.8482 58.3466 42.9543C58.6875 42.0604 59.1761 41.3785 59.8125 40.9088C60.4527 40.4391 61.2178 40.2043 62.108 40.2043C62.9981 40.2043 63.7614 40.441 64.3977 40.9145C65.0341 41.3842 65.5208 42.066 65.858 42.96C66.1989 43.8501 66.3693 44.9259 66.3693 46.1873C66.3693 47.4562 66.2008 48.5395 65.8636 49.4373C65.5265 50.3312 65.0398 51.0149 64.4034 51.4884C63.767 51.9581 63.0019 52.1929 62.108 52.1929ZM62.108 50.6759C62.8958 50.6759 63.5114 50.2914 63.9545 49.5225C64.4015 48.7535 64.625 47.6418 64.625 46.1873C64.625 45.2213 64.5227 44.4051 64.3182 43.7384C64.1174 43.0679 63.8277 42.5604 63.4489 42.2157C63.0739 41.8672 62.6269 41.6929 62.108 41.6929C61.3239 41.6929 60.7083 42.0793 60.2614 42.852C59.8144 43.6248 59.589 44.7365 59.5852 46.1873C59.5852 47.157 59.6856 47.977 59.8864 48.6475C60.0909 49.3141 60.3807 49.8198 60.7557 50.1645C61.1307 50.5054 61.5814 50.6759 62.108 50.6759ZM72.4361 52.1929C71.5384 52.1891 70.7713 51.9524 70.1349 51.4827C69.4986 51.013 69.0118 50.3293 68.6747 49.4316C68.3376 48.5338 68.169 47.4524 68.169 46.1873C68.169 44.9259 68.3376 43.8482 68.6747 42.9543C69.0156 42.0604 69.5043 41.3785 70.1406 40.9088C70.7808 40.4391 71.5459 40.2043 72.4361 40.2043C73.3262 40.2043 74.0895 40.441 74.7259 40.9145C75.3622 41.3842 75.849 42.066 76.1861 42.96C76.527 43.8501 76.6974 44.9259 76.6974 46.1873C76.6974 47.4562 76.5289 48.5395 76.1918 49.4373C75.8546 50.3312 75.3679 51.0149 74.7315 51.4884C74.0952 51.9581 73.33 52.1929 72.4361 52.1929ZM72.4361 50.6759C73.224 50.6759 73.8395 50.2914 74.2827 49.5225C74.7296 48.7535 74.9531 47.6418 74.9531 46.1873C74.9531 45.2213 74.8509 44.4051 74.6463 43.7384C74.4455 43.0679 74.1558 42.5604 73.777 42.2157C73.402 41.8672 72.955 41.6929 72.4361 41.6929C71.652 41.6929 71.0365 42.0793 70.5895 42.852C70.1425 43.6248 69.9171 44.7365 69.9134 46.1873C69.9134 47.157 70.0137 47.977 70.2145 48.6475C70.419 49.3141 70.7088 49.8198 71.0838 50.1645C71.4588 50.5054 71.9096 50.6759 72.4361 50.6759Z" fill="black"/>
<path d="M12.5795 17.21V16.2725H19.125V17.21H16.3807V24.9998H15.3239V17.21H12.5795ZM22.3295 25.1361C21.7386 25.1361 21.2202 24.9955 20.7741 24.7142C20.331 24.433 19.9844 24.0395 19.7344 23.5338C19.4872 23.0282 19.3636 22.4373 19.3636 21.7611C19.3636 21.0793 19.4872 20.4841 19.7344 19.9756C19.9844 19.4671 20.331 19.0722 20.7741 18.7909C21.2202 18.5097 21.7386 18.3691 22.3295 18.3691C22.9205 18.3691 23.4375 18.5097 23.8807 18.7909C24.3267 19.0722 24.6733 19.4671 24.9205 19.9756C25.1705 20.4841 25.2955 21.0793 25.2955 21.7611C25.2955 22.4373 25.1705 23.0282 24.9205 23.5338C24.6733 24.0395 24.3267 24.433 23.8807 24.7142C23.4375 24.9955 22.9205 25.1361 22.3295 25.1361ZM22.3295 24.2327C22.7784 24.2327 23.1477 24.1177 23.4375 23.8875C23.7273 23.6574 23.9418 23.3549 24.081 22.9799C24.2202 22.6049 24.2898 22.1986 24.2898 21.7611C24.2898 21.3236 24.2202 20.9159 24.081 20.5381C23.9418 20.1603 23.7273 19.8549 23.4375 19.6219C23.1477 19.389 22.7784 19.2725 22.3295 19.2725C21.8807 19.2725 21.5114 19.389 21.2216 19.6219C20.9318 19.8549 20.7173 20.1603 20.5781 20.5381C20.4389 20.9159 20.3693 21.3236 20.3693 21.7611C20.3693 22.1986 20.4389 22.6049 20.5781 22.9799C20.7173 23.3549 20.9318 23.6574 21.2216 23.8875C21.5114 24.1177 21.8807 24.2327 22.3295 24.2327ZM29.6772 18.4543V19.3066H26.2852V18.4543H29.6772ZM27.2738 16.8861H28.2795V23.1248C28.2795 23.4088 28.3207 23.6219 28.4031 23.764C28.4883 23.9032 28.5962 23.9969 28.7269 24.0452C28.8604 24.0907 29.0011 24.1134 29.1488 24.1134C29.2596 24.1134 29.3505 24.1077 29.4215 24.0963C29.4925 24.0821 29.5494 24.0708 29.592 24.0623L29.7965 24.9657C29.7283 24.9912 29.6332 25.0168 29.511 25.0424C29.3888 25.0708 29.234 25.085 29.0465 25.085C28.7624 25.085 28.484 25.0239 28.2113 24.9017C27.9414 24.7796 27.717 24.5935 27.538 24.3435C27.3619 24.0935 27.2738 23.7782 27.2738 23.3975V16.8861ZM33.1161 25.1532C32.7013 25.1532 32.3249 25.075 31.9869 24.9188C31.6488 24.7597 31.3803 24.531 31.1815 24.2327C30.9826 23.9316 30.8832 23.5679 30.8832 23.1418C30.8832 22.7668 30.957 22.4628 31.1048 22.2299C31.2525 21.9941 31.4499 21.8094 31.6971 21.6759C31.9442 21.5424 32.217 21.4429 32.5153 21.3776C32.8164 21.3094 33.119 21.2554 33.4229 21.2157C33.8207 21.1645 34.1431 21.1262 34.3903 21.1006C34.6403 21.0722 34.8221 21.0253 34.9357 20.96C35.0522 20.8946 35.1104 20.781 35.1104 20.6191V20.585C35.1104 20.1645 34.9954 19.8378 34.7653 19.6049C34.538 19.3719 34.1928 19.2554 33.7298 19.2554C33.2496 19.2554 32.8732 19.3606 32.6005 19.5708C32.3278 19.781 32.136 20.0054 32.0252 20.2441L31.0707 19.9032C31.2411 19.5054 31.4684 19.1958 31.7525 18.9742C32.0394 18.7498 32.3519 18.5935 32.69 18.5054C33.0309 18.4145 33.3661 18.3691 33.6957 18.3691C33.9059 18.3691 34.1474 18.3946 34.4201 18.4458C34.6957 18.4941 34.9613 18.5949 35.217 18.7483C35.4755 18.9017 35.69 19.1333 35.8604 19.4429C36.0309 19.7526 36.1161 20.1674 36.1161 20.6873V24.9998H35.1104V24.1134H35.0593C34.9911 24.2554 34.8775 24.4074 34.7184 24.5694C34.5593 24.7313 34.3477 24.8691 34.0835 24.9827C33.8192 25.0963 33.4968 25.1532 33.1161 25.1532ZM33.2695 24.2498C33.6673 24.2498 34.0025 24.1716 34.2752 24.0154C34.5508 23.8591 34.7582 23.6574 34.8974 23.4103C35.0394 23.1631 35.1104 22.9032 35.1104 22.6304V21.71C35.0678 21.7611 34.9741 21.808 34.8292 21.8506C34.6871 21.8904 34.5224 21.9259 34.3349 21.9571C34.1502 21.9856 33.9698 22.0111 33.7937 22.0338C33.6204 22.0537 33.4798 22.0708 33.3718 22.085C33.1104 22.1191 32.8661 22.1745 32.6388 22.2512C32.4144 22.325 32.2326 22.4373 32.0934 22.5878C31.957 22.7356 31.8888 22.9373 31.8888 23.1929C31.8888 23.5424 32.0181 23.8066 32.2766 23.9856C32.538 24.1617 32.869 24.2498 33.2695 24.2498ZM38.9574 16.2725V24.9998H37.9517V16.2725H38.9574ZM45.3675 16.2725V24.9998H44.3107V16.2725H45.3675ZM48.3558 21.0623V24.9998H47.3501V18.4543H48.3217V19.477H48.407C48.5604 19.1446 48.7933 18.8776 49.1058 18.6759C49.4183 18.4713 49.8217 18.3691 50.3161 18.3691C50.7592 18.3691 51.147 18.46 51.4794 18.6418C51.8118 18.8208 52.0703 19.0935 52.255 19.46C52.4396 19.8236 52.532 20.2838 52.532 20.8407V24.9998H51.5263V20.9088C51.5263 20.3946 51.3928 19.9941 51.1257 19.7071C50.8587 19.4174 50.4922 19.2725 50.0263 19.2725C49.7053 19.2725 49.4183 19.3421 49.1655 19.4813C48.9155 19.6205 48.718 19.8236 48.5732 20.0907C48.4283 20.3577 48.3558 20.6816 48.3558 21.0623ZM57.0288 25.1361C56.4151 25.1361 55.8867 24.9912 55.4435 24.7015C55.0004 24.4117 54.6594 24.0125 54.4208 23.504C54.1822 22.9955 54.0629 22.4145 54.0629 21.7611C54.0629 21.0963 54.185 20.5097 54.4293 20.0012C54.6765 19.4898 55.0202 19.0907 55.4606 18.8037C55.9038 18.514 56.4208 18.3691 57.0117 18.3691C57.4719 18.3691 57.8867 18.4543 58.256 18.6248C58.6254 18.7952 58.9279 19.0338 59.1637 19.3407C59.3995 19.6475 59.5458 20.0054 59.6026 20.4145H58.5969C58.5202 20.1162 58.3498 19.852 58.0856 19.6219C57.8242 19.389 57.4719 19.2725 57.0288 19.2725C56.6367 19.2725 56.293 19.3748 55.9975 19.5793C55.7049 19.781 55.4762 20.0665 55.3114 20.4358C55.1495 20.8023 55.0685 21.2327 55.0685 21.727C55.0685 22.2327 55.1481 22.6731 55.3072 23.0481C55.4691 23.4231 55.6964 23.7142 55.989 23.9216C56.2844 24.129 56.631 24.2327 57.0288 24.2327C57.2901 24.2327 57.5273 24.1873 57.7404 24.0963C57.9535 24.0054 58.1339 23.8748 58.2816 23.7043C58.4293 23.5338 58.5344 23.3293 58.5969 23.0907H59.6026C59.5458 23.477 59.4052 23.825 59.1808 24.1347C58.9592 24.4415 58.6651 24.6858 58.2987 24.8677C57.935 25.0466 57.5117 25.1361 57.0288 25.1361ZM63.7319 25.1361C63.141 25.1361 62.6225 24.9955 62.1765 24.7142C61.7333 24.433 61.3867 24.0395 61.1367 23.5338C60.8896 23.0282 60.766 22.4373 60.766 21.7611C60.766 21.0793 60.8896 20.4841 61.1367 19.9756C61.3867 19.4671 61.7333 19.0722 62.1765 18.7909C62.6225 18.5097 63.141 18.3691 63.7319 18.3691C64.3228 18.3691 64.8398 18.5097 65.283 18.7909C65.729 19.0722 66.0756 19.4671 66.3228 19.9756C66.5728 20.4841 66.6978 21.0793 66.6978 21.7611C66.6978 22.4373 66.5728 23.0282 66.3228 23.5338C66.0756 24.0395 65.729 24.433 65.283 24.7142C64.8398 24.9955 64.3228 25.1361 63.7319 25.1361ZM63.7319 24.2327C64.1808 24.2327 64.5501 24.1177 64.8398 23.8875C65.1296 23.6574 65.3441 23.3549 65.4833 22.9799C65.6225 22.6049 65.6921 22.1986 65.6921 21.7611C65.6921 21.3236 65.6225 20.9159 65.4833 20.5381C65.3441 20.1603 65.1296 19.8549 64.8398 19.6219C64.5501 19.389 64.1808 19.2725 63.7319 19.2725C63.283 19.2725 62.9137 19.389 62.6239 19.6219C62.3342 19.8549 62.1197 20.1603 61.9805 20.5381C61.8413 20.9159 61.7717 21.3236 61.7717 21.7611C61.7717 22.1986 61.8413 22.6049 61.9805 22.9799C62.1197 23.3549 62.3342 23.6574 62.6239 23.8875C62.9137 24.1177 63.283 24.2327 63.7319 24.2327ZM68.233 24.9998V18.4543H69.2045V19.477H69.2898C69.4261 19.1276 69.6463 18.8563 69.9503 18.6631C70.2543 18.4671 70.6193 18.3691 71.0455 18.3691C71.4773 18.3691 71.8366 18.4671 72.1236 18.6631C72.4134 18.8563 72.6392 19.1276 72.8011 19.477H72.8693C73.0369 19.139 73.2884 18.8705 73.6236 18.6716C73.9588 18.4699 74.3608 18.3691 74.8295 18.3691C75.4148 18.3691 75.8935 18.5523 76.2656 18.9188C76.6378 19.2824 76.8239 19.8492 76.8239 20.6191V24.9998H75.8182V20.6191C75.8182 20.1361 75.6861 19.7909 75.4219 19.5836C75.1577 19.3762 74.8466 19.2725 74.4886 19.2725C74.0284 19.2725 73.6719 19.4117 73.419 19.6901C73.1662 19.9657 73.0398 20.3151 73.0398 20.7384V24.9998H72.017V20.5168C72.017 20.1446 71.8963 19.8449 71.6548 19.6177C71.4134 19.3875 71.1023 19.2725 70.7216 19.2725C70.4602 19.2725 70.2159 19.3421 69.9886 19.4813C69.7642 19.6205 69.5824 19.8137 69.4432 20.0608C69.3068 20.3052 69.2386 20.5878 69.2386 20.9088V24.9998H68.233ZM81.407 25.1361C80.7763 25.1361 80.2322 24.9969 79.7749 24.7185C79.3203 24.4373 78.9695 24.0452 78.7223 23.5424C78.478 23.0367 78.3558 22.4486 78.3558 21.7782C78.3558 21.1077 78.478 20.5168 78.7223 20.0054C78.9695 19.4912 79.3132 19.0907 79.7536 18.8037C80.1967 18.514 80.7138 18.3691 81.3047 18.3691C81.6456 18.3691 81.9822 18.4259 82.3146 18.5395C82.647 18.6532 82.9496 18.8378 83.2223 19.0935C83.495 19.3463 83.7124 19.6816 83.8743 20.0992C84.0362 20.5168 84.1172 21.031 84.1172 21.6418V22.0679H79.0717V21.1986H83.0945C83.0945 20.8293 83.0206 20.4998 82.8729 20.21C82.728 19.9202 82.5206 19.6915 82.2507 19.5239C81.9837 19.3563 81.6683 19.2725 81.3047 19.2725C80.9041 19.2725 80.5575 19.3719 80.2649 19.5708C79.9751 19.7668 79.7521 20.0225 79.5959 20.3378C79.4396 20.6532 79.3615 20.9912 79.3615 21.352V21.9316C79.3615 22.4259 79.4467 22.8449 79.6172 23.1887C79.7905 23.5296 80.0305 23.7895 80.3374 23.9685C80.6442 24.1446 81.0007 24.2327 81.407 24.2327C81.6712 24.2327 81.9098 24.1958 82.1229 24.1219C82.3388 24.0452 82.5249 23.9316 82.6811 23.781C82.8374 23.6276 82.9581 23.4373 83.0433 23.21L84.0149 23.4827C83.9126 23.8123 83.7408 24.102 83.4993 24.352C83.2578 24.5992 82.9595 24.7924 82.6044 24.9316C82.2493 25.0679 81.8501 25.1361 81.407 25.1361Z" fill="#A9A7B6"/>
<path d="M121 52.6663V44.333" stroke="#52BD94" stroke-width="1.66667" stroke-linecap="round" stroke-linejoin="round"/>
<path d="M116 52.6663V39.333" stroke="#52BD94" stroke-width="1.66667" stroke-linecap="round" stroke-linejoin="round"/>
<path d="M111 52.6665V47.6665" stroke="#52BD94" stroke-width="1.66667" stroke-linecap="round" stroke-linejoin="round"/>
</svg>
